<svg xmlns="http://www.w3.org/2000/svg" data-name="Layer 1" viewBox="0 0 100 125" x="0px" y="0px"><title>Artboard 16</title><path d="M97.75,61.69A4.61,4.61,0,0,0,92,60.94C84.69,65.42,70.3,74.06,70.3,74.06a12,12,0,0,1-5.95,1.74L48,75.87h0a1.09,1.09,0,0,1-.09-2.17l16.73-.3a3.92,3.92,0,0,0,.12-7.83l-9.9-.73A49.33,49.33,0,0,1,42.7,62.32c-12.58-4.65-20-2.26-24-1a4.67,4.67,0,0,0-4.16-2.15l-8.65.39a5.09,5.09,0,0,0-5,5.26l1,19.2A5.15,5.15,0,0,0,7.32,88.8L16,88.41A4.61,4.61,0,0,0,19.84,86a3.36,3.36,0,0,0,2.2.83h.15l36.72,2.44q.7,0,1.41,0a23.65,23.65,0,0,0,13.51-4.24l23.34-16.4a4.53,4.53,0,0,0,.68-6.86ZM10.57,84.33a2.84,2.84,0,1,1,3-2.77A2.89,2.89,0,0,1,10.57,84.33Zm60.59-14a6.61,6.61,0,0,0-.91-4.31l13.56-7a4.32,4.32,0,0,1,5,.6C82.73,63.29,75.82,67.53,71.17,70.36Zm6.64-13a4.36,4.36,0,0,1,2.4.75L68.31,64a6.6,6.6,0,0,0-3.37-1.15l-1.69-.12,12.79-5A4.36,4.36,0,0,1,77.81,57.35ZM55.67,13.55v7h7a2.85,2.85,0,0,1,2.85,2.85v9.89a2.85,2.85,0,1,1-5.69,0v-7h-7A2.85,2.85,0,0,1,50,23.44v-7H35.9v4.19h7a2.85,2.85,0,0,1,0,5.69h-7v24H38A2.85,2.85,0,1,1,38,56H33A2.85,2.85,0,0,1,30.2,53.1V13.55A2.85,2.85,0,0,1,33,10.71H52.82A2.85,2.85,0,0,1,55.67,13.55ZM50,50.26V46.06h-7a2.85,2.85,0,0,1-2.85-2.85V33.33a2.85,2.85,0,0,1,2.85-2.85h9.89a2.85,2.85,0,0,1,0,5.69h-7v4.19h7a2.85,2.85,0,0,1,2.85,2.85v7H69.75V46.06h-7a2.85,2.85,0,0,1,0-5.69h7v-24h-7a2.85,2.85,0,0,1,0-5.69H72.6a2.85,2.85,0,0,1,2.85,2.85V53.1A2.85,2.85,0,0,1,72.6,56H47.88a2.85,2.85,0,1,1,0-5.69Z"/></svg>