<svg xmlns="http://www.w3.org/2000/svg" xmlns:xlink="http://www.w3.org/1999/xlink" version="1.1" x="0px" y="0px" viewBox="0 0 100 125" style="enable-background:new 0 0 100 100;" xml:space="preserve"><g><path d="M87.211,54.54c0.041-0.501,0.061-0.97,0.061-1.426c0-11.98-9.747-21.728-21.728-21.728c-0.494,0-0.995,0.021-1.521,0.063   c-3.205-8.256-11.307-13.89-20.26-13.89c-11.98,0-21.727,9.747-21.727,21.727c0,0.34,0.009,0.686,0.026,1.034   C12.208,42.284,5,50.924,5,61.172C5,72.899,14.542,82.44,26.269,82.44h53.889C88.342,82.44,95,75.783,95,67.599   C95,62.088,91.988,57.114,87.211,54.54z M80.158,78.44H26.269C16.747,78.44,9,70.694,9,61.172c0-8.863,6.638-16.245,15.44-17.17   c0.54-0.057,1.033-0.33,1.367-0.757s0.48-0.972,0.405-1.509c-0.117-0.838-0.177-1.662-0.177-2.449   c0-9.775,7.952-17.727,17.727-17.727c7.767,0,14.748,5.196,16.977,12.635c0.286,0.952,1.223,1.552,2.208,1.405   c0.989-0.146,1.815-0.213,2.597-0.213c9.775,0,17.728,7.953,17.728,17.728c0,0.682-0.06,1.426-0.188,2.341   c-0.126,0.903,0.374,1.777,1.215,2.125C88.37,59.265,91,63.198,91,67.599C91,73.577,86.136,78.44,80.158,78.44z"/></g>	</svg>